<?xml version="1.0" encoding="UTF-8" standalone="no"?>
<!-- Generator: Adobe Illustrator 27.1.1, SVG Export Plug-In . SVG Version: 6.00 Build 0)  -->

<svg
   version="1.1"
   id="Layer_1"
   x="0px"
   y="0px"
   viewBox="0 0 507.2 153.2"
   style="enable-background:new 0 0 507.2 153.2;"
   xml:space="preserve"
   sodipodi:docname="valesite.svg"
   inkscape:version="1.2.2 (b0a8486541, 2022-12-01)"
   xmlns:inkscape="http://www.inkscape.org/namespaces/inkscape"
   xmlns:sodipodi="http://sodipodi.sourceforge.net/DTD/sodipodi-0.dtd"
   xmlns:xlink="http://www.w3.org/1999/xlink"
   xmlns="http://www.w3.org/2000/svg"
   xmlns:svg="http://www.w3.org/2000/svg"><defs
   id="defs244"><linearGradient
     inkscape:collect="always"
     id="linearGradient1279"><stop
       style="stop-color:#ff8700;stop-opacity:1;"
       offset="0"
       id="stop1277" /><stop
       style="stop-color:#2c78bf;stop-opacity:1;"
       offset="1"
       id="stop1275" /></linearGradient><linearGradient
     inkscape:collect="always"
     xlink:href="#linearGradient1279"
     id="linearGradient1281"
     x1="0"
     y1="0"
     x2="507.20001"
     y2="153.2"
     gradientUnits="userSpaceOnUse" /></defs><sodipodi:namedview
   id="namedview242"
   pagecolor="#505050"
   bordercolor="#ffffff"
   borderopacity="1"
   inkscape:showpageshadow="0"
   inkscape:pageopacity="0"
   inkscape:pagecheckerboard="1"
   inkscape:deskcolor="#505050"
   showgrid="false"
   inkscape:zoom="0.62429419"
   inkscape:cx="348.39344"
   inkscape:cy="-10.411758"
   inkscape:window-width="1128"
   inkscape:window-height="709"
   inkscape:window-x="0"
   inkscape:window-y="0"
   inkscape:window-maximized="1"
   inkscape:current-layer="Layer_1" />
<style
   type="text/css"
   id="style229">
	.st0{fill:#FFFFFF;}
</style>




<g
   id="g1273"
   style="fill:url(#linearGradient1281);fill-opacity:1"><path
     class="st0"
     d="M46.5,2c-0.4-1.2-1.6-2-2.8-2H3C0.9,0-0.6,2.2,0.2,4.1l2.9,7.2c12.8,1.1,30.8,5.5,50.9,11.5L46.5,2z M24.4,65.1  l34.3,86.1c0.5,1.2,1.6,1.9,2.8,1.9h33.1c1.2,0,2.4-0.8,2.8-1.9l9.5-23.7C70.8,101.9,43.8,81.3,24.4,65.1z M93.9,52.3l-14,39.5  c-0.2,0.6-1.1,0.6-1.4,0L60.1,40.3C30.4,29.7,14.8,24.2,7.8,23.5l7.1,17.8c18.2,18.7,55.3,49.3,96.8,74.5l20.1-50.1  C117.8,60.7,105.2,56.3,93.9,52.3z M153.7,0h-39.1c-1.3,0-2.4,0.8-2.9,2L99.1,37.6c13.1,4.6,26.2,9.3,38.5,13.8l18.9-47.2  C157.3,2.2,155.9,0,153.7,0z"
     id="path231"
     style="fill:url(#linearGradient1281);fill-opacity:1" /><path
     class="st0"
     d="M385.9,112.9h-58.2c-2,0-3.7-1.7-3.7-3.7V3.7c0-2-1.7-3.7-3.7-3.7h-39.9c-2,0-3.7,1.7-3.7,3.7v94.9  c36.6,11.9,78.7,26.6,112.9,42.5v-24.5C389.6,114.5,388,112.9,385.9,112.9z M276.7,111.6v37.9c0,2,1.6,3.7,3.7,3.7h35.9  c16.1-2.5,26.3-5.7,26.8-8.3C344.4,138,323.5,127.2,276.7,111.6z"
     id="path233"
     style="fill:url(#linearGradient1281);fill-opacity:1" /><path
     class="st0"
     d="M443.9,41.9V54c0,2,1.7,3.7,3.7,3.7h42.5c2,0,3.7,1.7,3.7,3.7v28.5c0,2-1.7,3.7-3.7,3.7h-42.5  c-2,0-3.7,1.7-3.7,3.7v13.8c0,2,1.7,3.7,3.7,3.7h54.9c2,0,3.7,1.7,3.7,3.7v30.9c0,2-1.7,3.7-3.7,3.7H413c-5-2.7-10.2-5.5-15.8-8.1  V3.7c0-2,1.7-3.7,3.7-3.7h102.6c2,0,3.7,1.7,3.7,3.7v30.9c0,2-1.7,3.7-3.7,3.7h-55.9C445.5,38.2,443.9,39.9,443.9,41.9z"
     id="path235"
     style="fill:url(#linearGradient1281);fill-opacity:1" /><path
     class="st0"
     d="M111.3,148.1c-1,2.4,0.8,5.1,3.4,5.1h29.1c-9.5-6.5-18.5-12.8-27-18.7L111.3,148.1z"
     id="path237"
     style="fill:url(#linearGradient1281);fill-opacity:1" /><path
     class="st0"
     d="M266.9,148.1l-18.1-45.5c-10.9-3.4-22.8-7-35.7-10.8c0.3-1.8,0.8-3.6,1.3-5.4c0.6-2.3,1.4-4.5,2.3-6.7  c7.6,2.3,16.5,5.1,26.3,8.1L208.9,2.2c-0.6-1.4-1.9-2.3-3.4-2.3h-32.2c-1.5,0-2.9,0.9-3.4,2.3l-21.4,53.2c8.2,3,15.9,5.9,22.8,8.5  l-14.4-0.2c-1.9,0-2.8,2.3-1.3,3.5l12.8,10.9l0,0c-8.9-3-17.4-5.9-25.4-8.7l-21,52.3c12.4,7.1,25.2,13.7,37.8,19.1  c4.4-12.1,11.6-32,15.7-43.2c0.9-2.4,3.8-3.2,5.8-1.6l27.2,22.1c0.5,0.4,0.9,1,1.1,1.6l11.7,30.8l18.4,2.6h23.8  C266.1,153.1,267.9,150.5,266.9,148.1z M169.4,72.4c-1.4-1.2-0.6-3.5,1.3-3.5l42,0.7c1.5,0,2.4,1.6,1.7,2.9  c-0.1,0.3-0.3,0.6-0.4,0.9c-0.1,0.1-0.1,0.2-0.1,0.3c-0.3,0.6-0.6,1.3-0.9,2c-0.1,0.2-0.1,0.3-0.2,0.5c-0.3,0.7-0.6,1.4-0.9,2.2  c-0.8,2.1-1.6,4.3-2.3,6.8c-0.5,1.8-0.9,3.6-1.3,5.3c-0.2,0.8-0.3,1.6-0.4,2.4c0,0.2-0.1,0.5-0.1,0.7c-0.1,0.6-0.2,1.1-0.2,1.7  c0,0.2-0.1,0.5-0.1,0.7c-0.1,0.7-0.2,1.4-0.2,2.1v0.1c-0.1,0.7-0.1,1.4-0.1,2c0,0.1,0,0.1,0,0.2c-0.1,1.7-2,2.5-3.3,1.4l-22.7-19.3  L169.4,72.4z"
     id="path239"
     style="fill:url(#linearGradient1281);fill-opacity:1" /></g>
</svg>
